# xmcd
#
# Track frame offsets:
#	150
#	20132
#	34117
#	54467
#	70160
#	87007
#	103352
#	119150
#	135665
#	148322
#	172767
#	189285
#
# Disc length: 2696 seconds
#
# Revision: 0
# Processed by: cddbd v1.5.1PL2 Copyright (c) Steve Scherf et al.
# Submitted via: EasyCDDAExtractor 9.1.3.1
#
DISCID=ad0a860c
DTITLE=Dick Rivers - De Luxe
DYEAR=1997
DGENRE=Chanson
TTITLE0=Sale combine
TTITLE1=L'heure de Superman
TTITLE2=Le dernier d'la classe
TTITLE3=C'est dans l'journal
TTITLE4=Y'a marre de ce western
TTITLE5=J'ai pas la cote avec toi
TTITLE6=Je t'ai reconnue
TTITLE7=Radio Mirabelle
TTITLE8=La vie des poubelles
TTITLE9=Cinq heures du mat'
TTITLE10=Pretty woman
TTITLE11=One way street
EXTD=
EXTT0=
EXTT1=
EXTT2=
EXTT3=
EXTT4=
EXTT5=
EXTT6=
EXTT7=
EXTT8=
EXTT9=
EXTT10=
EXTT11=
PLAYORDER=
